<svg xmlns="http://www.w3.org/2000/svg" viewBox="0 0 32 32">
  <!-- EaseMyOffice building icon - pixel/grid style -->
  <rect width="32" height="32" rx="4" fill="#ffffff"/>
  <!-- Building body - grid of small squares representing the pixelated building -->
  <!-- Left section -->
  <rect x="3" y="20" width="2.5" height="2.5" rx="0.3" fill="#0a2540"/>
  <rect x="6" y="20" width="2.5" height="2.5" rx="0.3" fill="#0a2540"/>
  <rect x="9" y="20" width="2.5" height="2.5" rx="0.3" fill="#0a2540"/>
  <rect x="3" y="23" width="2.5" height="2.5" rx="0.3" fill="#0a2540"/>
  <rect x="6" y="23" width="2.5" height="2.5" rx="0.3" fill="#0a2540"/>
  <rect x="9" y="23" width="2.5" height="2.5" rx="0.3" fill="#0a2540"/>
  <rect x="3" y="26" width="2.5" height="2.5" rx="0.3" fill="#0a2540"/>
  <rect x="6" y="26" width="2.5" height="2.5" rx="0.3" fill="#0a2540"/>
  <rect x="9" y="26" width="2.5" height="2.5" rx="0.3" fill="#0a2540"/>
  <!-- Middle section (taller) -->
  <rect x="12" y="14" width="2.5" height="2.5" rx="0.3" fill="#1a6dd4"/>
  <rect x="15" y="14" width="2.5" height="2.5" rx="0.3" fill="#1a6dd4"/>
  <rect x="12" y="17" width="2.5" height="2.5" rx="0.3" fill="#0a2540"/>
  <rect x="15" y="17" width="2.5" height="2.5" rx="0.3" fill="#0a2540"/>
  <rect x="12" y="20" width="2.5" height="2.5" rx="0.3" fill="#0a2540"/>
  <rect x="15" y="20" width="2.5" height="2.5" rx="0.3" fill="#0a2540"/>
  <rect x="12" y="23" width="2.5" height="2.5" rx="0.3" fill="#0a2540"/>
  <rect x="15" y="23" width="2.5" height="2.5" rx="0.3" fill="#0a2540"/>
  <rect x="12" y="26" width="2.5" height="2.5" rx="0.3" fill="#0a2540"/>
  <rect x="15" y="26" width="2.5" height="2.5" rx="0.3" fill="#0a2540"/>
  <!-- Right section (tallest - tower) -->
  <rect x="18" y="8" width="2.5" height="2.5" rx="0.3" fill="#1a6dd4"/>
  <rect x="21" y="8" width="2.5" height="2.5" rx="0.3" fill="#1a6dd4"/>
  <rect x="24" y="8" width="2.5" height="2.5" rx="0.3" fill="#0ea5e9"/>
  <rect x="18" y="11" width="2.5" height="2.5" rx="0.3" fill="#1a6dd4"/>
  <rect x="21" y="11" width="2.5" height="2.5" rx="0.3" fill="#1a6dd4"/>
  <rect x="24" y="11" width="2.5" height="2.5" rx="0.3" fill="#1a6dd4"/>
  <rect x="18" y="14" width="2.5" height="2.5" rx="0.3" fill="#0a2540"/>
  <rect x="21" y="14" width="2.5" height="2.5" rx="0.3" fill="#0a2540"/>
  <rect x="24" y="14" width="2.5" height="2.5" rx="0.3" fill="#0a2540"/>
  <rect x="27" y="14" width="2.5" height="2.5" rx="0.3" fill="#0a2540"/>
  <rect x="18" y="17" width="2.5" height="2.5" rx="0.3" fill="#0a2540"/>
  <rect x="21" y="17" width="2.5" height="2.5" rx="0.3" fill="#0a2540"/>
  <rect x="24" y="17" width="2.5" height="2.5" rx="0.3" fill="#0a2540"/>
  <rect x="27" y="17" width="2.5" height="2.5" rx="0.3" fill="#0a2540"/>
  <rect x="18" y="20" width="2.5" height="2.5" rx="0.3" fill="#0a2540"/>
  <rect x="21" y="20" width="2.5" height="2.5" rx="0.3" fill="#0a2540"/>
  <rect x="24" y="20" width="2.5" height="2.5" rx="0.3" fill="#0a2540"/>
  <rect x="27" y="20" width="2.5" height="2.5" rx="0.3" fill="#0a2540"/>
  <rect x="18" y="23" width="2.5" height="2.5" rx="0.3" fill="#0a2540"/>
  <rect x="21" y="23" width="2.5" height="2.5" rx="0.3" fill="#0a2540"/>
  <rect x="24" y="23" width="2.5" height="2.5" rx="0.3" fill="#0a2540"/>
  <rect x="27" y="23" width="2.5" height="2.5" rx="0.3" fill="#0a2540"/>
  <rect x="18" y="26" width="2.5" height="2.5" rx="0.3" fill="#0a2540"/>
  <rect x="21" y="26" width="2.5" height="2.5" rx="0.3" fill="#0a2540"/>
  <rect x="24" y="26" width="2.5" height="2.5" rx="0.3" fill="#0a2540"/>
  <rect x="27" y="26" width="2.5" height="2.5" rx="0.3" fill="#0a2540"/>
  <!-- Roof/top accents -->
  <rect x="6" y="17" width="2.5" height="2.5" rx="0.3" fill="#1a6dd4"/>
  <rect x="9" y="17" width="2.5" height="2.5" rx="0.3" fill="#1a6dd4"/>
  <rect x="21" y="5" width="2.5" height="2.5" rx="0.3" fill="#0ea5e9"/>
  <rect x="24" y="5" width="2.5" height="2.5" rx="0.3" fill="#0ea5e9"/>
</svg>
